<svg height="2383" overflow="hidden" width="2383" xmlns="http://www.w3.org/2000/svg" xmlns:xlink="http://www.w3.org/1999/xlink"><filter id="a" filterUnits="userSpaceOnUse"><feComponentTransfer color-interpolation-filters="sRGB"><feFuncR tableValues="0.000000 0.000000" type="discrete"/><feFuncG tableValues="0.000000 0.000000" type="discrete"/><feFuncB tableValues="0.000000 0.000000" type="discrete"/><feFuncA intercept="0.000000" slope="0.400000" type="linear"/></feComponentTransfer><feGaussianBlur stdDeviation="6.111111 6.111111"/></filter><filter id="b" filterUnits="userSpaceOnUse"><feComponentTransfer color-interpolation-filters="sRGB"><feFuncR tableValues="0.000000 0.000000" type="discrete"/><feFuncG tableValues="0.000000 0.000000" type="discrete"/><feFuncB tableValues="0.000000 0.000000" type="discrete"/><feFuncA intercept="0.000000" slope="0.400000" type="linear"/></feComponentTransfer><feGaussianBlur stdDeviation="6.111111 6.111111"/></filter><clipPath id="c"><path d="m1.94397 1.94391h810.667v1203.67h-810.667z"/></clipPath><clipPath id="d"><path d="m196.861 294.319h1985.83v1790.92h-1985.83z"/></clipPath><g transform="translate(-1054 -110)"><g clip-path="url(#c)" filter="url(#a)" transform="translate(1839 793)"><path d="m638.277 20.2772h156v1049h-156z" fill="#f5b700"/><path d="m432.277 203.277h157v984h-157z" fill="#a5a5df"/><path d="m226.277 320.277h157v867h-157z" fill="#07004d"/><path d="m20.2772 208.277h157v867h-157z" fill="#acf7c1"/></g><path d="m2487 823h156v1049h-156z" fill="#f5b700"/><path d="m2281 1006h157v984h-157z" fill="#a5a5df"/><path d="m2075 1123h157v867h-157z" fill="#07004d"/><path d="m1869 1011h157v867h-157z" fill="#acf7c1"/><g clip-path="url(#d)" filter="url(#b)" transform="translate(1057 112)"><path d="m1530.1 389.833c308.94 0 516.52 290.426 516.52 561.36 0 548.687-861.53 997.977-877.12 997.977s-877.125-449.29-877.125-997.977c0-270.934 207.586-561.36 516.529-561.36 177.374 0 293.346 88.687 360.596 166.654 67.25-77.967 183.22-166.654 360.6-166.654z" fill="none" stroke="#e3170a" stroke-linecap="round" stroke-linejoin="round" stroke-width="194.917" transform="translate(20.2772 20.2773)"/></g><path d="m1530.1 389.833c308.94 0 516.52 290.426 516.52 561.36 0 548.687-861.53 997.977-877.12 997.977s-877.125-449.29-877.125-997.977c0-270.934 207.586-561.36 516.529-561.36 177.374 0 293.346 88.687 360.596 166.654 67.25-77.967 183.22-166.654 360.6-166.654z" fill="none" stroke="#e3170a" stroke-linecap="round" stroke-linejoin="round" stroke-width="194.917" transform="translate(1087 142)"/></g></svg>